<svg width="126" height="84" viewBox="0 0 126 84" fill="none" xmlns="http://www.w3.org/2000/svg">
    <mask id="path-1-outside-1_164_4204" maskUnits="userSpaceOnUse" x="0.63208" y="0.709961" width="126" height="83" fill="black">
        <rect fill="white" x="0.63208" y="0.709961" width="126" height="83"/>
        <path d="M27.4917 30C26.5317 30 25.8217 29.74 25.3617 29.22C24.9217 28.68 24.7717 27.94 24.9117 27L27.4317 11.13C27.5717 10.27 27.8917 9.62996 28.3917 9.20996C28.8917 8.78996 29.5717 8.57996 30.4317 8.57996C31.3517 8.57996 32.0317 8.83996 32.4717 9.35996C32.9117 9.87996 33.0517 10.62 32.8917 11.58L30.7017 25.41H37.6017C38.3617 25.41 38.9517 25.57 39.3717 25.89C39.8117 26.21 40.0317 26.67 40.0317 27.27C40.0317 28.11 39.7817 28.78 39.2817 29.28C38.8017 29.76 38.1317 30 37.2717 30H27.4917Z"/>
        <path d="M44.2306 30.27C43.3906 30.27 42.7806 30 42.4006 29.46C42.0206 28.9 41.9006 28.14 42.0406 27.18L43.5706 17.61C43.7106 16.73 44.0306 16.07 44.5306 15.63C45.0506 15.19 45.7506 14.97 46.6306 14.97C47.4706 14.97 48.0806 15.24 48.4606 15.78C48.8606 16.32 48.9806 17.08 48.8206 18.06L47.2906 27.63C47.1706 28.51 46.8506 29.17 46.3306 29.61C45.8306 30.05 45.1306 30.27 44.2306 30.27ZM47.0206 12.84C46.0806 12.84 45.3906 12.62 44.9506 12.18C44.5106 11.74 44.3506 11.12 44.4706 10.32C44.5906 9.45996 44.9306 8.80996 45.4906 8.36996C46.0706 7.92996 46.8506 7.70996 47.8306 7.70996C48.7506 7.70996 49.4406 7.92996 49.9006 8.36996C50.3606 8.80996 50.5306 9.42996 50.4106 10.23C50.2706 11.09 49.9106 11.74 49.3306 12.18C48.7706 12.62 48.0006 12.84 47.0206 12.84Z"/>
        <path d="M58.1281 30.33C56.6081 30.33 55.3681 30.06 54.4081 29.52C53.4481 28.98 52.7781 28.23 52.3981 27.27C52.0381 26.31 51.9481 25.21 52.1281 23.97L52.9081 19.17H52.2481C51.5881 19.17 51.0681 19.03 50.6881 18.75C50.3281 18.45 50.1481 18.03 50.1481 17.49C50.1481 16.77 50.3781 16.22 50.8381 15.84C51.3181 15.44 51.9681 15.24 52.7881 15.24H53.5381L53.8681 13.14C54.0081 12.32 54.3181 11.71 54.7981 11.31C55.2781 10.89 55.9281 10.68 56.7481 10.68C57.6681 10.68 58.3281 10.93 58.7281 11.43C59.1281 11.93 59.2581 12.65 59.1181 13.59L58.8781 15.24H61.0381C61.6981 15.24 62.2181 15.38 62.5981 15.66C62.9781 15.92 63.1681 16.33 63.1681 16.89C63.1681 17.53 62.9481 18.07 62.5081 18.51C62.0881 18.95 61.5081 19.17 60.7681 19.17H58.2481L57.4981 23.76C57.3781 24.58 57.4781 25.17 57.7981 25.53C58.1381 25.87 58.6081 26.04 59.2081 26.04C59.5081 26.04 59.7581 26.02 59.9581 25.98C60.1581 25.92 60.3781 25.89 60.6181 25.89C60.9981 25.89 61.2681 25.99 61.4281 26.19C61.6081 26.39 61.6981 26.78 61.6981 27.36C61.6981 28.34 61.5281 29.02 61.1881 29.4C60.8481 29.78 60.4181 30.03 59.8981 30.15C59.6181 30.21 59.3181 30.25 58.9981 30.27C58.6981 30.31 58.4081 30.33 58.1281 30.33Z"/>
        <path d="M69.5538 30.33C68.0338 30.33 66.7938 30.06 65.8338 29.52C64.8738 28.98 64.2038 28.23 63.8238 27.27C63.4638 26.31 63.3738 25.21 63.5538 23.97L64.3338 19.17H63.6738C63.0138 19.17 62.4938 19.03 62.1138 18.75C61.7538 18.45 61.5738 18.03 61.5738 17.49C61.5738 16.77 61.8038 16.22 62.2638 15.84C62.7438 15.44 63.3938 15.24 64.2138 15.24H64.9638L65.2938 13.14C65.4338 12.32 65.7438 11.71 66.2238 11.31C66.7038 10.89 67.3538 10.68 68.1738 10.68C69.0938 10.68 69.7538 10.93 70.1538 11.43C70.5538 11.93 70.6838 12.65 70.5438 13.59L70.3038 15.24H72.4638C73.1238 15.24 73.6438 15.38 74.0238 15.66C74.4038 15.92 74.5938 16.33 74.5938 16.89C74.5938 17.53 74.3738 18.07 73.9338 18.51C73.5138 18.95 72.9338 19.17 72.1938 19.17H69.6738L68.9238 23.76C68.8038 24.58 68.9038 25.17 69.2238 25.53C69.5638 25.87 70.0338 26.04 70.6338 26.04C70.9338 26.04 71.1838 26.02 71.3838 25.98C71.5838 25.92 71.8038 25.89 72.0438 25.89C72.4238 25.89 72.6938 25.99 72.8538 26.19C73.0338 26.39 73.1238 26.78 73.1238 27.36C73.1238 28.34 72.9538 29.02 72.6138 29.4C72.2738 29.78 71.8438 30.03 71.3238 30.15C71.0438 30.21 70.7438 30.25 70.4238 30.27C70.1238 30.31 69.8338 30.33 69.5538 30.33Z"/>
        <path d="M80.6646 30.33C78.7446 30.33 77.3646 29.8 76.5246 28.74C75.6846 27.68 75.4146 26.14 75.7146 24.12L77.7846 11.25C77.9246 10.37 78.2446 9.70996 78.7446 9.26996C79.2646 8.80996 79.9646 8.57996 80.8446 8.57996C81.6846 8.57996 82.2946 8.84996 82.6746 9.38996C83.0746 9.92996 83.1946 10.69 83.0346 11.67L81.0546 24.03C80.9546 24.71 81.0246 25.23 81.2646 25.59C81.5046 25.93 81.8646 26.1 82.3446 26.1C82.5046 26.1 82.6446 26.09 82.7646 26.07C82.8846 26.03 83.0146 26.01 83.1546 26.01C83.4146 26.01 83.6246 26.11 83.7846 26.31C83.9446 26.49 84.0246 26.85 84.0246 27.39C84.0246 28.23 83.8646 28.86 83.5446 29.28C83.2446 29.68 82.8846 29.95 82.4646 30.09C82.2646 30.17 81.9946 30.23 81.6546 30.27C81.3146 30.31 80.9846 30.33 80.6646 30.33Z"/>
        <path d="M93.4078 30.33C91.8278 30.33 90.4478 30.05 89.2678 29.49C88.0878 28.91 87.1678 28.1 86.5078 27.06C85.8478 26.02 85.5178 24.81 85.5178 23.43C85.5178 21.73 85.8878 20.24 86.6278 18.96C87.3878 17.68 88.4078 16.69 89.6878 15.99C90.9878 15.27 92.4278 14.91 94.0078 14.91C95.2878 14.91 96.3678 15.12 97.2478 15.54C98.1478 15.96 98.8578 16.53 99.3778 17.25C99.9178 17.97 100.278 18.79 100.458 19.71C100.638 20.61 100.668 21.54 100.548 22.5C100.488 23 100.348 23.33 100.128 23.49C99.9078 23.63 99.6178 23.7 99.2578 23.7H89.8678L90.2278 21.18H96.8878L96.4078 21.57C96.5078 20.95 96.4778 20.4 96.3178 19.92C96.1778 19.44 95.9078 19.07 95.5078 18.81C95.1278 18.53 94.6078 18.39 93.9478 18.39C93.3078 18.39 92.7678 18.53 92.3278 18.81C91.8878 19.09 91.5278 19.47 91.2478 19.95C90.9878 20.43 90.8178 20.97 90.7378 21.57L90.5278 22.74C90.3478 23.92 90.5678 24.83 91.1878 25.47C91.8078 26.09 92.7478 26.4 94.0078 26.4C94.4678 26.4 94.9778 26.35 95.5378 26.25C96.1178 26.15 96.6178 26 97.0378 25.8C97.5778 25.58 98.0278 25.53 98.3878 25.65C98.7678 25.77 99.0478 26 99.2278 26.34C99.4078 26.66 99.4778 27.02 99.4378 27.42C99.4178 27.82 99.2878 28.21 99.0478 28.59C98.8078 28.95 98.4478 29.23 97.9678 29.43C97.2678 29.75 96.5178 29.98 95.7178 30.12C94.9378 30.26 94.1678 30.33 93.4078 30.33Z"/>
        <path d="M15.3421 71.33C13.6421 71.33 12.2221 71.05 11.0821 70.49C9.94208 69.91 9.08208 69.1 8.50208 68.06C7.92208 67.02 7.63208 65.81 7.63208 64.43C7.63208 63.31 7.81208 62.24 8.17208 61.22C8.55208 60.2 9.11208 59.29 9.85208 58.49C10.5921 57.69 11.5221 57.06 12.6421 56.6C13.7621 56.14 15.0621 55.91 16.5421 55.91C17.2421 55.91 17.8521 55.96 18.3721 56.06C18.8921 56.16 19.4221 56.29 19.9621 56.45C20.5421 56.63 20.9521 56.91 21.1921 57.29C21.4521 57.65 21.5721 58.04 21.5521 58.46C21.5521 58.88 21.4421 59.27 21.2221 59.63C21.0021 59.97 20.7121 60.23 20.3521 60.41C20.0121 60.57 19.6221 60.56 19.1821 60.38C18.7821 60.22 18.4021 60.11 18.0421 60.05C17.6821 59.97 17.3321 59.93 16.9921 59.93C16.2721 59.93 15.6621 60.06 15.1621 60.32C14.6621 60.56 14.2621 60.9 13.9621 61.34C13.6621 61.76 13.4421 62.23 13.3021 62.75C13.1621 63.27 13.0921 63.8 13.0921 64.34C13.0921 65.24 13.3321 65.96 13.8121 66.5C14.2921 67.04 15.0921 67.31 16.2121 67.31C16.4521 67.31 16.7521 67.27 17.1121 67.19C17.4921 67.11 17.8921 66.99 18.3121 66.83C18.6921 66.69 19.0321 66.7 19.3321 66.86C19.6521 67.02 19.9021 67.27 20.0821 67.61C20.2821 67.93 20.3721 68.29 20.3521 68.69C20.3521 69.09 20.2321 69.47 19.9921 69.83C19.7521 70.17 19.3521 70.45 18.7921 70.67C18.3321 70.89 17.7821 71.05 17.1421 71.15C16.5221 71.27 15.9221 71.33 15.3421 71.33Z"/>
        <path d="M29.4904 71.33C27.8704 71.33 26.4904 71.05 25.3504 70.49C24.2304 69.91 23.3704 69.1 22.7704 68.06C22.1904 67.02 21.9004 65.81 21.9004 64.43C21.9004 63.01 22.1404 61.77 22.6204 60.71C23.1204 59.65 23.7804 58.76 24.6004 58.04C25.4404 57.32 26.3804 56.79 27.4204 56.45C28.4604 56.09 29.5304 55.91 30.6304 55.91C32.2304 55.91 33.5904 56.2 34.7104 56.78C35.8504 57.34 36.7204 58.14 37.3204 59.18C37.9204 60.2 38.2204 61.4 38.2204 62.78C38.2204 64.22 37.9704 65.47 37.4704 66.53C36.9904 67.59 36.3304 68.48 35.4904 69.2C34.6704 69.92 33.7404 70.46 32.7004 70.82C31.6604 71.16 30.5904 71.33 29.4904 71.33ZM29.5804 67.4C30.2604 67.4 30.8404 67.2 31.3204 66.8C31.8204 66.38 32.2004 65.81 32.4604 65.09C32.7204 64.37 32.8504 63.55 32.8504 62.63C32.8504 61.73 32.6404 61.04 32.2204 60.56C31.8204 60.08 31.2504 59.84 30.5104 59.84C29.8504 59.84 29.2704 60.04 28.7704 60.44C28.2904 60.84 27.9204 61.4 27.6604 62.12C27.4004 62.84 27.2704 63.67 27.2704 64.61C27.2704 65.51 27.4704 66.2 27.8704 66.68C28.2904 67.16 28.8604 67.4 29.5804 67.4Z"/>
        <path d="M44.7472 71.33C43.7072 71.33 42.8072 71.11 42.0472 70.67C41.3072 70.23 40.7772 69.54 40.4572 68.6C40.1572 67.66 40.1172 66.45 40.3372 64.97L41.3872 58.43C41.5272 57.59 41.8372 56.97 42.3172 56.57C42.7972 56.17 43.4472 55.97 44.2672 55.97C45.1872 55.97 45.8472 56.22 46.2472 56.72C46.6672 57.22 46.8072 57.94 46.6672 58.88L45.7072 64.88C45.6072 65.66 45.6672 66.25 45.8872 66.65C46.1072 67.05 46.5372 67.25 47.1772 67.25C47.9572 67.25 48.6072 66.97 49.1272 66.41C49.6472 65.85 49.9872 65.07 50.1472 64.07L51.0472 58.43C51.1872 57.59 51.4972 56.97 51.9772 56.57C52.4572 56.17 53.1072 55.97 53.9272 55.97C54.8272 55.97 55.4772 56.22 55.8772 56.72C56.2972 57.22 56.4372 57.94 56.2972 58.88L54.7372 68.81C54.4772 70.45 53.5172 71.27 51.8572 71.27C51.0172 71.27 50.4072 71.06 50.0272 70.64C49.6472 70.2 49.5272 69.51 49.6672 68.57L49.9072 66.95L49.8772 68.27C49.3372 69.31 48.6172 70.08 47.7172 70.58C46.8372 71.08 45.8472 71.33 44.7472 71.33Z"/>
        <path d="M60.1248 71.24C59.2848 71.24 58.6748 70.97 58.2948 70.43C57.9148 69.87 57.7948 69.1 57.9348 68.12L59.4348 58.61C59.5748 57.73 59.9048 57.07 60.4248 56.63C60.9448 56.19 61.6348 55.97 62.4948 55.97C63.2948 55.97 63.8948 56.21 64.2948 56.69C64.6948 57.17 64.8048 57.88 64.6248 58.82L64.4148 60.02V58.79C64.9348 57.85 65.6348 57.14 66.5148 56.66C67.3948 56.16 68.4148 55.91 69.5748 55.91C70.6348 55.91 71.5348 56.13 72.2748 56.57C73.0348 57.01 73.5648 57.7 73.8648 58.64C74.1848 59.58 74.2348 60.79 74.0148 62.27L73.0248 68.57C72.8848 69.45 72.5548 70.12 72.0348 70.58C71.5148 71.02 70.8148 71.24 69.9348 71.24C69.0948 71.24 68.4748 70.97 68.0748 70.43C67.6948 69.87 67.5848 69.1 67.7448 68.12L68.6448 62.36C68.7848 61.58 68.7348 60.99 68.4948 60.59C68.2548 60.19 67.7948 59.99 67.1148 59.99C66.2948 59.99 65.6148 60.27 65.0748 60.83C64.5548 61.37 64.2148 62.14 64.0548 63.14L63.1848 68.57C62.9048 70.35 61.8848 71.24 60.1248 71.24Z"/>
        <path d="M83.7482 71.33C82.2282 71.33 80.9882 71.06 80.0282 70.52C79.0682 69.98 78.3982 69.23 78.0182 68.27C77.6582 67.31 77.5682 66.21 77.7482 64.97L78.5282 60.17H77.8682C77.2082 60.17 76.6882 60.03 76.3082 59.75C75.9482 59.45 75.7682 59.03 75.7682 58.49C75.7682 57.77 75.9982 57.22 76.4582 56.84C76.9382 56.44 77.5882 56.24 78.4082 56.24H79.1582L79.4882 54.14C79.6282 53.32 79.9382 52.71 80.4182 52.31C80.8982 51.89 81.5482 51.68 82.3682 51.68C83.2882 51.68 83.9482 51.93 84.3482 52.43C84.7482 52.93 84.8782 53.65 84.7382 54.59L84.4982 56.24H86.6582C87.3182 56.24 87.8382 56.38 88.2182 56.66C88.5982 56.92 88.7882 57.33 88.7882 57.89C88.7882 58.53 88.5682 59.07 88.1282 59.51C87.7082 59.95 87.1282 60.17 86.3882 60.17H83.8682L83.1182 64.76C82.9982 65.58 83.0982 66.17 83.4182 66.53C83.7582 66.87 84.2282 67.04 84.8282 67.04C85.1282 67.04 85.3782 67.02 85.5782 66.98C85.7782 66.92 85.9982 66.89 86.2382 66.89C86.6182 66.89 86.8882 66.99 87.0482 67.19C87.2282 67.39 87.3182 67.78 87.3182 68.36C87.3182 69.34 87.1482 70.02 86.8082 70.4C86.4682 70.78 86.0382 71.03 85.5182 71.15C85.2382 71.21 84.9382 71.25 84.6182 71.27C84.3182 71.31 84.0282 71.33 83.7482 71.33Z"/>
        <path d="M91.0916 71.27C90.2516 71.27 89.6316 71.01 89.2316 70.49C88.8516 69.97 88.7316 69.24 88.8716 68.3L90.4016 58.49C90.5416 57.65 90.8616 57.02 91.3616 56.6C91.8816 56.18 92.5616 55.97 93.4016 55.97C94.2416 55.97 94.8516 56.23 95.2316 56.75C95.6116 57.25 95.7216 57.98 95.5616 58.94L95.4116 59.87H95.1416C95.5016 58.69 96.1216 57.75 97.0016 57.05C97.9016 56.33 98.9316 55.95 100.092 55.91C100.732 55.89 101.192 56.02 101.472 56.3C101.752 56.56 101.892 57.01 101.892 57.65C101.892 58.59 101.672 59.29 101.232 59.75C100.812 60.19 100.162 60.45 99.2816 60.53L98.1716 60.65C97.1316 60.75 96.3816 61.05 95.9216 61.55C95.4816 62.05 95.1716 62.83 94.9916 63.89L94.2416 68.72C94.1016 69.58 93.7716 70.22 93.2516 70.64C92.7316 71.06 92.0116 71.27 91.0916 71.27Z"/>
        <path d="M105.878 76.67C105.218 76.67 104.698 76.52 104.318 76.22C103.958 75.94 103.758 75.56 103.718 75.08C103.698 74.6 103.848 74.09 104.168 73.55L107.018 68.93L106.718 71.09L103.478 59.51C103.278 58.81 103.248 58.2 103.388 57.68C103.548 57.14 103.838 56.72 104.258 56.42C104.678 56.12 105.208 55.97 105.848 55.97C106.568 55.97 107.118 56.14 107.498 56.48C107.878 56.82 108.168 57.44 108.368 58.34L110.108 65.9H109.088L113.648 57.83C114.028 57.15 114.428 56.67 114.848 56.39C115.288 56.11 115.848 55.97 116.528 55.97C117.188 55.97 117.708 56.12 118.088 56.42C118.468 56.7 118.678 57.08 118.718 57.56C118.758 58.02 118.608 58.53 118.268 59.09L108.788 74.78C108.388 75.46 107.978 75.94 107.558 76.22C107.138 76.52 106.578 76.67 105.878 76.67Z"/>
    </mask>
    <path d="M27.4917 30C26.5317 30 25.8217 29.74 25.3617 29.22C24.9217 28.68 24.7717 27.94 24.9117 27L27.4317 11.13C27.5717 10.27 27.8917 9.62996 28.3917 9.20996C28.8917 8.78996 29.5717 8.57996 30.4317 8.57996C31.3517 8.57996 32.0317 8.83996 32.4717 9.35996C32.9117 9.87996 33.0517 10.62 32.8917 11.58L30.7017 25.41H37.6017C38.3617 25.41 38.9517 25.57 39.3717 25.89C39.8117 26.21 40.0317 26.67 40.0317 27.27C40.0317 28.11 39.7817 28.78 39.2817 29.28C38.8017 29.76 38.1317 30 37.2717 30H27.4917Z" fill="white"/>
    <path d="M44.2306 30.27C43.3906 30.27 42.7806 30 42.4006 29.46C42.0206 28.9 41.9006 28.14 42.0406 27.18L43.5706 17.61C43.7106 16.73 44.0306 16.07 44.5306 15.63C45.0506 15.19 45.7506 14.97 46.6306 14.97C47.4706 14.97 48.0806 15.24 48.4606 15.78C48.8606 16.32 48.9806 17.08 48.8206 18.06L47.2906 27.63C47.1706 28.51 46.8506 29.17 46.3306 29.61C45.8306 30.05 45.1306 30.27 44.2306 30.27ZM47.0206 12.84C46.0806 12.84 45.3906 12.62 44.9506 12.18C44.5106 11.74 44.3506 11.12 44.4706 10.32C44.5906 9.45996 44.9306 8.80996 45.4906 8.36996C46.0706 7.92996 46.8506 7.70996 47.8306 7.70996C48.7506 7.70996 49.4406 7.92996 49.9006 8.36996C50.3606 8.80996 50.5306 9.42996 50.4106 10.23C50.2706 11.09 49.9106 11.74 49.3306 12.18C48.7706 12.62 48.0006 12.84 47.0206 12.84Z" fill="white"/>
    <path d="M58.1281 30.33C56.6081 30.33 55.3681 30.06 54.4081 29.52C53.4481 28.98 52.7781 28.23 52.3981 27.27C52.0381 26.31 51.9481 25.21 52.1281 23.97L52.9081 19.17H52.2481C51.5881 19.17 51.0681 19.03 50.6881 18.75C50.3281 18.45 50.1481 18.03 50.1481 17.49C50.1481 16.77 50.3781 16.22 50.8381 15.84C51.3181 15.44 51.9681 15.24 52.7881 15.24H53.5381L53.8681 13.14C54.0081 12.32 54.3181 11.71 54.7981 11.31C55.2781 10.89 55.9281 10.68 56.7481 10.68C57.6681 10.68 58.3281 10.93 58.7281 11.43C59.1281 11.93 59.2581 12.65 59.1181 13.59L58.8781 15.24H61.0381C61.6981 15.24 62.2181 15.38 62.5981 15.66C62.9781 15.92 63.1681 16.33 63.1681 16.89C63.1681 17.53 62.9481 18.07 62.5081 18.51C62.0881 18.95 61.5081 19.17 60.7681 19.17H58.2481L57.4981 23.76C57.3781 24.58 57.4781 25.17 57.7981 25.53C58.1381 25.87 58.6081 26.04 59.2081 26.04C59.5081 26.04 59.7581 26.02 59.9581 25.98C60.1581 25.92 60.3781 25.89 60.6181 25.89C60.9981 25.89 61.2681 25.99 61.4281 26.19C61.6081 26.39 61.6981 26.78 61.6981 27.36C61.6981 28.34 61.5281 29.02 61.1881 29.4C60.8481 29.78 60.4181 30.03 59.8981 30.15C59.6181 30.21 59.3181 30.25 58.9981 30.27C58.6981 30.31 58.4081 30.33 58.1281 30.33Z" fill="white"/>
    <path d="M69.5538 30.33C68.0338 30.33 66.7938 30.06 65.8338 29.52C64.8738 28.98 64.2038 28.23 63.8238 27.27C63.4638 26.31 63.3738 25.21 63.5538 23.97L64.3338 19.17H63.6738C63.0138 19.17 62.4938 19.03 62.1138 18.75C61.7538 18.45 61.5738 18.03 61.5738 17.49C61.5738 16.77 61.8038 16.22 62.2638 15.84C62.7438 15.44 63.3938 15.24 64.2138 15.24H64.9638L65.2938 13.14C65.4338 12.32 65.7438 11.71 66.2238 11.31C66.7038 10.89 67.3538 10.68 68.1738 10.68C69.0938 10.68 69.7538 10.93 70.1538 11.43C70.5538 11.93 70.6838 12.65 70.5438 13.59L70.3038 15.24H72.4638C73.1238 15.24 73.6438 15.38 74.0238 15.66C74.4038 15.92 74.5938 16.33 74.5938 16.89C74.5938 17.53 74.3738 18.07 73.9338 18.51C73.5138 18.95 72.9338 19.17 72.1938 19.17H69.6738L68.9238 23.76C68.8038 24.58 68.9038 25.17 69.2238 25.53C69.5638 25.87 70.0338 26.04 70.6338 26.04C70.9338 26.04 71.1838 26.02 71.3838 25.98C71.5838 25.92 71.8038 25.89 72.0438 25.89C72.4238 25.89 72.6938 25.99 72.8538 26.19C73.0338 26.39 73.1238 26.78 73.1238 27.36C73.1238 28.34 72.9538 29.02 72.6138 29.4C72.2738 29.78 71.8438 30.03 71.3238 30.15C71.0438 30.21 70.7438 30.25 70.4238 30.27C70.1238 30.31 69.8338 30.33 69.5538 30.33Z" fill="white"/>
    <path d="M80.6646 30.33C78.7446 30.33 77.3646 29.8 76.5246 28.74C75.6846 27.68 75.4146 26.14 75.7146 24.12L77.7846 11.25C77.9246 10.37 78.2446 9.70996 78.7446 9.26996C79.2646 8.80996 79.9646 8.57996 80.8446 8.57996C81.6846 8.57996 82.2946 8.84996 82.6746 9.38996C83.0746 9.92996 83.1946 10.69 83.0346 11.67L81.0546 24.03C80.9546 24.71 81.0246 25.23 81.2646 25.59C81.5046 25.93 81.8646 26.1 82.3446 26.1C82.5046 26.1 82.6446 26.09 82.7646 26.07C82.8846 26.03 83.0146 26.01 83.1546 26.01C83.4146 26.01 83.6246 26.11 83.7846 26.31C83.9446 26.49 84.0246 26.85 84.0246 27.39C84.0246 28.23 83.8646 28.86 83.5446 29.28C83.2446 29.68 82.8846 29.95 82.4646 30.09C82.2646 30.17 81.9946 30.23 81.6546 30.27C81.3146 30.31 80.9846 30.33 80.6646 30.33Z" fill="white"/>
    <path d="M93.4078 30.33C91.8278 30.33 90.4478 30.05 89.2678 29.49C88.0878 28.91 87.1678 28.1 86.5078 27.06C85.8478 26.02 85.5178 24.81 85.5178 23.43C85.5178 21.73 85.8878 20.24 86.6278 18.96C87.3878 17.68 88.4078 16.69 89.6878 15.99C90.9878 15.27 92.4278 14.91 94.0078 14.91C95.2878 14.91 96.3678 15.12 97.2478 15.54C98.1478 15.96 98.8578 16.53 99.3778 17.25C99.9178 17.97 100.278 18.79 100.458 19.71C100.638 20.61 100.668 21.54 100.548 22.5C100.488 23 100.348 23.33 100.128 23.49C99.9078 23.63 99.6178 23.7 99.2578 23.7H89.8678L90.2278 21.18H96.8878L96.4078 21.57C96.5078 20.95 96.4778 20.4 96.3178 19.92C96.1778 19.44 95.9078 19.07 95.5078 18.81C95.1278 18.53 94.6078 18.39 93.9478 18.39C93.3078 18.39 92.7678 18.53 92.3278 18.81C91.8878 19.09 91.5278 19.47 91.2478 19.95C90.9878 20.43 90.8178 20.97 90.7378 21.57L90.5278 22.74C90.3478 23.92 90.5678 24.83 91.1878 25.47C91.8078 26.09 92.7478 26.4 94.0078 26.4C94.4678 26.4 94.9778 26.35 95.5378 26.25C96.1178 26.15 96.6178 26 97.0378 25.8C97.5778 25.58 98.0278 25.53 98.3878 25.65C98.7678 25.77 99.0478 26 99.2278 26.34C99.4078 26.66 99.4778 27.02 99.4378 27.42C99.4178 27.82 99.2878 28.21 99.0478 28.59C98.8078 28.95 98.4478 29.23 97.9678 29.43C97.2678 29.75 96.5178 29.98 95.7178 30.12C94.9378 30.26 94.1678 30.33 93.4078 30.33Z" fill="white"/>
    <path d="M15.3421 71.33C13.6421 71.33 12.2221 71.05 11.0821 70.49C9.94208 69.91 9.08208 69.1 8.50208 68.06C7.92208 67.02 7.63208 65.81 7.63208 64.43C7.63208 63.31 7.81208 62.24 8.17208 61.22C8.55208 60.2 9.11208 59.29 9.85208 58.49C10.5921 57.69 11.5221 57.06 12.6421 56.6C13.7621 56.14 15.0621 55.91 16.5421 55.91C17.2421 55.91 17.8521 55.96 18.3721 56.06C18.8921 56.16 19.4221 56.29 19.9621 56.45C20.5421 56.63 20.9521 56.91 21.1921 57.29C21.4521 57.65 21.5721 58.04 21.5521 58.46C21.5521 58.88 21.4421 59.27 21.2221 59.63C21.0021 59.97 20.7121 60.23 20.3521 60.41C20.0121 60.57 19.6221 60.56 19.1821 60.38C18.7821 60.22 18.4021 60.11 18.0421 60.05C17.6821 59.97 17.3321 59.93 16.9921 59.93C16.2721 59.93 15.6621 60.06 15.1621 60.32C14.6621 60.56 14.2621 60.9 13.9621 61.34C13.6621 61.76 13.4421 62.23 13.3021 62.75C13.1621 63.27 13.0921 63.8 13.0921 64.34C13.0921 65.24 13.3321 65.96 13.8121 66.5C14.2921 67.04 15.0921 67.31 16.2121 67.31C16.4521 67.31 16.7521 67.27 17.1121 67.19C17.4921 67.11 17.8921 66.99 18.3121 66.83C18.6921 66.69 19.0321 66.7 19.3321 66.86C19.6521 67.02 19.9021 67.27 20.0821 67.61C20.2821 67.93 20.3721 68.29 20.3521 68.69C20.3521 69.09 20.2321 69.47 19.9921 69.83C19.7521 70.17 19.3521 70.45 18.7921 70.67C18.3321 70.89 17.7821 71.05 17.1421 71.15C16.5221 71.27 15.9221 71.33 15.3421 71.33Z" fill="white"/>
    <path d="M29.4904 71.33C27.8704 71.33 26.4904 71.05 25.3504 70.49C24.2304 69.91 23.3704 69.1 22.7704 68.06C22.1904 67.02 21.9004 65.81 21.9004 64.43C21.9004 63.01 22.1404 61.77 22.6204 60.71C23.1204 59.65 23.7804 58.76 24.6004 58.04C25.4404 57.32 26.3804 56.79 27.4204 56.45C28.4604 56.09 29.5304 55.91 30.6304 55.91C32.2304 55.91 33.5904 56.2 34.7104 56.78C35.8504 57.34 36.7204 58.14 37.3204 59.18C37.9204 60.2 38.2204 61.4 38.2204 62.78C38.2204 64.22 37.9704 65.47 37.4704 66.53C36.9904 67.59 36.3304 68.48 35.4904 69.2C34.6704 69.92 33.7404 70.46 32.7004 70.82C31.6604 71.16 30.5904 71.33 29.4904 71.33ZM29.5804 67.4C30.2604 67.4 30.8404 67.2 31.3204 66.8C31.8204 66.38 32.2004 65.81 32.4604 65.09C32.7204 64.37 32.8504 63.55 32.8504 62.63C32.8504 61.73 32.6404 61.04 32.2204 60.56C31.8204 60.08 31.2504 59.84 30.5104 59.84C29.8504 59.84 29.2704 60.04 28.7704 60.44C28.2904 60.84 27.9204 61.4 27.6604 62.12C27.4004 62.84 27.2704 63.67 27.2704 64.61C27.2704 65.51 27.4704 66.2 27.8704 66.68C28.2904 67.16 28.8604 67.4 29.5804 67.4Z" fill="white"/>
    <path d="M44.7472 71.33C43.7072 71.33 42.8072 71.11 42.0472 70.67C41.3072 70.23 40.7772 69.54 40.4572 68.6C40.1572 67.66 40.1172 66.45 40.3372 64.97L41.3872 58.43C41.5272 57.59 41.8372 56.97 42.3172 56.57C42.7972 56.17 43.4472 55.97 44.2672 55.97C45.1872 55.97 45.8472 56.22 46.2472 56.72C46.6672 57.22 46.8072 57.94 46.6672 58.88L45.7072 64.88C45.6072 65.66 45.6672 66.25 45.8872 66.65C46.1072 67.05 46.5372 67.25 47.1772 67.25C47.9572 67.25 48.6072 66.97 49.1272 66.41C49.6472 65.85 49.9872 65.07 50.1472 64.07L51.0472 58.43C51.1872 57.59 51.4972 56.97 51.9772 56.57C52.4572 56.17 53.1072 55.97 53.9272 55.97C54.8272 55.97 55.4772 56.22 55.8772 56.72C56.2972 57.22 56.4372 57.94 56.2972 58.88L54.7372 68.81C54.4772 70.45 53.5172 71.27 51.8572 71.27C51.0172 71.27 50.4072 71.06 50.0272 70.64C49.6472 70.2 49.5272 69.51 49.6672 68.57L49.9072 66.95L49.8772 68.27C49.3372 69.31 48.6172 70.08 47.7172 70.58C46.8372 71.08 45.8472 71.33 44.7472 71.33Z" fill="white"/>
    <path d="M60.1248 71.24C59.2848 71.24 58.6748 70.97 58.2948 70.43C57.9148 69.87 57.7948 69.1 57.9348 68.12L59.4348 58.61C59.5748 57.73 59.9048 57.07 60.4248 56.63C60.9448 56.19 61.6348 55.97 62.4948 55.97C63.2948 55.97 63.8948 56.21 64.2948 56.69C64.6948 57.17 64.8048 57.88 64.6248 58.82L64.4148 60.02V58.79C64.9348 57.85 65.6348 57.14 66.5148 56.66C67.3948 56.16 68.4148 55.91 69.5748 55.91C70.6348 55.91 71.5348 56.13 72.2748 56.57C73.0348 57.01 73.5648 57.7 73.8648 58.64C74.1848 59.58 74.2348 60.79 74.0148 62.27L73.0248 68.57C72.8848 69.45 72.5548 70.12 72.0348 70.58C71.5148 71.02 70.8148 71.24 69.9348 71.24C69.0948 71.24 68.4748 70.97 68.0748 70.43C67.6948 69.87 67.5848 69.1 67.7448 68.12L68.6448 62.36C68.7848 61.58 68.7348 60.99 68.4948 60.59C68.2548 60.19 67.7948 59.99 67.1148 59.99C66.2948 59.99 65.6148 60.27 65.0748 60.83C64.5548 61.37 64.2148 62.14 64.0548 63.14L63.1848 68.57C62.9048 70.35 61.8848 71.24 60.1248 71.24Z" fill="white"/>
    <path d="M83.7482 71.33C82.2282 71.33 80.9882 71.06 80.0282 70.52C79.0682 69.98 78.3982 69.23 78.0182 68.27C77.6582 67.31 77.5682 66.21 77.7482 64.97L78.5282 60.17H77.8682C77.2082 60.17 76.6882 60.03 76.3082 59.75C75.9482 59.45 75.7682 59.03 75.7682 58.49C75.7682 57.77 75.9982 57.22 76.4582 56.84C76.9382 56.44 77.5882 56.24 78.4082 56.24H79.1582L79.4882 54.14C79.6282 53.32 79.9382 52.71 80.4182 52.31C80.8982 51.89 81.5482 51.68 82.3682 51.68C83.2882 51.68 83.9482 51.93 84.3482 52.43C84.7482 52.93 84.8782 53.65 84.7382 54.59L84.4982 56.24H86.6582C87.3182 56.24 87.8382 56.38 88.2182 56.66C88.5982 56.92 88.7882 57.33 88.7882 57.89C88.7882 58.53 88.5682 59.07 88.1282 59.51C87.7082 59.95 87.1282 60.17 86.3882 60.17H83.8682L83.1182 64.76C82.9982 65.58 83.0982 66.17 83.4182 66.53C83.7582 66.87 84.2282 67.04 84.8282 67.04C85.1282 67.04 85.3782 67.02 85.5782 66.98C85.7782 66.92 85.9982 66.89 86.2382 66.89C86.6182 66.89 86.8882 66.99 87.0482 67.19C87.2282 67.39 87.3182 67.78 87.3182 68.36C87.3182 69.34 87.1482 70.02 86.8082 70.4C86.4682 70.78 86.0382 71.03 85.5182 71.15C85.2382 71.21 84.9382 71.25 84.6182 71.27C84.3182 71.31 84.0282 71.33 83.7482 71.33Z" fill="white"/>
    <path d="M91.0916 71.27C90.2516 71.27 89.6316 71.01 89.2316 70.49C88.8516 69.97 88.7316 69.24 88.8716 68.3L90.4016 58.49C90.5416 57.65 90.8616 57.02 91.3616 56.6C91.8816 56.18 92.5616 55.97 93.4016 55.97C94.2416 55.97 94.8516 56.23 95.2316 56.75C95.6116 57.25 95.7216 57.98 95.5616 58.94L95.4116 59.87H95.1416C95.5016 58.69 96.1216 57.75 97.0016 57.05C97.9016 56.33 98.9316 55.95 100.092 55.91C100.732 55.89 101.192 56.02 101.472 56.3C101.752 56.56 101.892 57.01 101.892 57.65C101.892 58.59 101.672 59.29 101.232 59.75C100.812 60.19 100.162 60.45 99.2816 60.53L98.1716 60.65C97.1316 60.75 96.3816 61.05 95.9216 61.55C95.4816 62.05 95.1716 62.83 94.9916 63.89L94.2416 68.72C94.1016 69.58 93.7716 70.22 93.2516 70.64C92.7316 71.06 92.0116 71.27 91.0916 71.27Z" fill="white"/>
    <path d="M105.878 76.67C105.218 76.67 104.698 76.52 104.318 76.22C103.958 75.94 103.758 75.56 103.718 75.08C103.698 74.6 103.848 74.09 104.168 73.55L107.018 68.93L106.718 71.09L103.478 59.51C103.278 58.81 103.248 58.2 103.388 57.68C103.548 57.14 103.838 56.72 104.258 56.42C104.678 56.12 105.208 55.97 105.848 55.97C106.568 55.97 107.118 56.14 107.498 56.48C107.878 56.82 108.168 57.44 108.368 58.34L110.108 65.9H109.088L113.648 57.83C114.028 57.15 114.428 56.67 114.848 56.39C115.288 56.11 115.848 55.97 116.528 55.97C117.188 55.97 117.708 56.12 118.088 56.42C118.468 56.7 118.678 57.08 118.718 57.56C118.758 58.02 118.608 58.53 118.268 59.09L108.788 74.78C108.388 75.46 107.978 75.94 107.558 76.22C107.138 76.52 106.578 76.67 105.878 76.67Z" fill="white"/>
    <path d="M27.4917 30C26.5317 30 25.8217 29.74 25.3617 29.22C24.9217 28.68 24.7717 27.94 24.9117 27L27.4317 11.13C27.5717 10.27 27.8917 9.62996 28.3917 9.20996C28.8917 8.78996 29.5717 8.57996 30.4317 8.57996C31.3517 8.57996 32.0317 8.83996 32.4717 9.35996C32.9117 9.87996 33.0517 10.62 32.8917 11.58L30.7017 25.41H37.6017C38.3617 25.41 38.9517 25.57 39.3717 25.89C39.8117 26.21 40.0317 26.67 40.0317 27.27C40.0317 28.11 39.7817 28.78 39.2817 29.28C38.8017 29.76 38.1317 30 37.2717 30H27.4917Z" stroke="#1784C2" stroke-width="14" mask="url(#path-1-outside-1_164_4204)"/>
    <path d="M44.2306 30.27C43.3906 30.27 42.7806 30 42.4006 29.46C42.0206 28.9 41.9006 28.14 42.0406 27.18L43.5706 17.61C43.7106 16.73 44.0306 16.07 44.5306 15.63C45.0506 15.19 45.7506 14.97 46.6306 14.97C47.4706 14.97 48.0806 15.24 48.4606 15.78C48.8606 16.32 48.9806 17.08 48.8206 18.06L47.2906 27.63C47.1706 28.51 46.8506 29.17 46.3306 29.61C45.8306 30.05 45.1306 30.27 44.2306 30.27ZM47.0206 12.84C46.0806 12.84 45.3906 12.62 44.9506 12.18C44.5106 11.74 44.3506 11.12 44.4706 10.32C44.5906 9.45996 44.9306 8.80996 45.4906 8.36996C46.0706 7.92996 46.8506 7.70996 47.8306 7.70996C48.7506 7.70996 49.4406 7.92996 49.9006 8.36996C50.3606 8.80996 50.5306 9.42996 50.4106 10.23C50.2706 11.09 49.9106 11.74 49.3306 12.18C48.7706 12.62 48.0006 12.84 47.0206 12.84Z" stroke="#1784C2" stroke-width="14" mask="url(#path-1-outside-1_164_4204)"/>
    <path d="M58.1281 30.33C56.6081 30.33 55.3681 30.06 54.4081 29.52C53.4481 28.98 52.7781 28.23 52.3981 27.27C52.0381 26.31 51.9481 25.21 52.1281 23.97L52.9081 19.17H52.2481C51.5881 19.17 51.0681 19.03 50.6881 18.75C50.3281 18.45 50.1481 18.03 50.1481 17.49C50.1481 16.77 50.3781 16.22 50.8381 15.84C51.3181 15.44 51.9681 15.24 52.7881 15.24H53.5381L53.8681 13.14C54.0081 12.32 54.3181 11.71 54.7981 11.31C55.2781 10.89 55.9281 10.68 56.7481 10.68C57.6681 10.68 58.3281 10.93 58.7281 11.43C59.1281 11.93 59.2581 12.65 59.1181 13.59L58.8781 15.24H61.0381C61.6981 15.24 62.2181 15.38 62.5981 15.66C62.9781 15.92 63.1681 16.33 63.1681 16.89C63.1681 17.53 62.9481 18.07 62.5081 18.51C62.0881 18.95 61.5081 19.17 60.7681 19.17H58.2481L57.4981 23.76C57.3781 24.58 57.4781 25.17 57.7981 25.53C58.1381 25.87 58.6081 26.04 59.2081 26.04C59.5081 26.04 59.7581 26.02 59.9581 25.98C60.1581 25.92 60.3781 25.89 60.6181 25.89C60.9981 25.89 61.2681 25.99 61.4281 26.19C61.6081 26.39 61.6981 26.78 61.6981 27.36C61.6981 28.34 61.5281 29.02 61.1881 29.4C60.8481 29.78 60.4181 30.03 59.8981 30.15C59.6181 30.21 59.3181 30.25 58.9981 30.27C58.6981 30.31 58.4081 30.33 58.1281 30.33Z" stroke="#1784C2" stroke-width="14" mask="url(#path-1-outside-1_164_4204)"/>
    <path d="M69.5538 30.33C68.0338 30.33 66.7938 30.06 65.8338 29.52C64.8738 28.98 64.2038 28.23 63.8238 27.27C63.4638 26.31 63.3738 25.21 63.5538 23.97L64.3338 19.17H63.6738C63.0138 19.17 62.4938 19.03 62.1138 18.75C61.7538 18.45 61.5738 18.03 61.5738 17.49C61.5738 16.77 61.8038 16.22 62.2638 15.84C62.7438 15.44 63.3938 15.24 64.2138 15.24H64.9638L65.2938 13.14C65.4338 12.32 65.7438 11.71 66.2238 11.31C66.7038 10.89 67.3538 10.68 68.1738 10.68C69.0938 10.68 69.7538 10.93 70.1538 11.43C70.5538 11.93 70.6838 12.65 70.5438 13.59L70.3038 15.24H72.4638C73.1238 15.24 73.6438 15.38 74.0238 15.66C74.4038 15.92 74.5938 16.33 74.5938 16.89C74.5938 17.53 74.3738 18.07 73.9338 18.51C73.5138 18.95 72.9338 19.17 72.1938 19.17H69.6738L68.9238 23.76C68.8038 24.58 68.9038 25.17 69.2238 25.53C69.5638 25.87 70.0338 26.04 70.6338 26.04C70.9338 26.04 71.1838 26.02 71.3838 25.98C71.5838 25.92 71.8038 25.89 72.0438 25.89C72.4238 25.89 72.6938 25.99 72.8538 26.19C73.0338 26.39 73.1238 26.78 73.1238 27.36C73.1238 28.34 72.9538 29.02 72.6138 29.4C72.2738 29.78 71.8438 30.03 71.3238 30.15C71.0438 30.21 70.7438 30.25 70.4238 30.27C70.1238 30.31 69.8338 30.33 69.5538 30.33Z" stroke="#1784C2" stroke-width="14" mask="url(#path-1-outside-1_164_4204)"/>
    <path d="M80.6646 30.33C78.7446 30.33 77.3646 29.8 76.5246 28.74C75.6846 27.68 75.4146 26.14 75.7146 24.12L77.7846 11.25C77.9246 10.37 78.2446 9.70996 78.7446 9.26996C79.2646 8.80996 79.9646 8.57996 80.8446 8.57996C81.6846 8.57996 82.2946 8.84996 82.6746 9.38996C83.0746 9.92996 83.1946 10.69 83.0346 11.67L81.0546 24.03C80.9546 24.71 81.0246 25.23 81.2646 25.59C81.5046 25.93 81.8646 26.1 82.3446 26.1C82.5046 26.1 82.6446 26.09 82.7646 26.07C82.8846 26.03 83.0146 26.01 83.1546 26.01C83.4146 26.01 83.6246 26.11 83.7846 26.31C83.9446 26.49 84.0246 26.85 84.0246 27.39C84.0246 28.23 83.8646 28.86 83.5446 29.28C83.2446 29.68 82.8846 29.95 82.4646 30.09C82.2646 30.17 81.9946 30.23 81.6546 30.27C81.3146 30.31 80.9846 30.33 80.6646 30.33Z" stroke="#1784C2" stroke-width="14" mask="url(#path-1-outside-1_164_4204)"/>
    <path d="M93.4078 30.33C91.8278 30.33 90.4478 30.05 89.2678 29.49C88.0878 28.91 87.1678 28.1 86.5078 27.06C85.8478 26.02 85.5178 24.81 85.5178 23.43C85.5178 21.73 85.8878 20.24 86.6278 18.96C87.3878 17.68 88.4078 16.69 89.6878 15.99C90.9878 15.27 92.4278 14.91 94.0078 14.91C95.2878 14.91 96.3678 15.12 97.2478 15.54C98.1478 15.96 98.8578 16.53 99.3778 17.25C99.9178 17.97 100.278 18.79 100.458 19.71C100.638 20.61 100.668 21.54 100.548 22.5C100.488 23 100.348 23.33 100.128 23.49C99.9078 23.63 99.6178 23.7 99.2578 23.7H89.8678L90.2278 21.18H96.8878L96.4078 21.57C96.5078 20.95 96.4778 20.4 96.3178 19.92C96.1778 19.44 95.9078 19.07 95.5078 18.81C95.1278 18.53 94.6078 18.39 93.9478 18.39C93.3078 18.39 92.7678 18.53 92.3278 18.81C91.8878 19.09 91.5278 19.47 91.2478 19.95C90.9878 20.43 90.8178 20.97 90.7378 21.57L90.5278 22.74C90.3478 23.92 90.5678 24.83 91.1878 25.47C91.8078 26.09 92.7478 26.4 94.0078 26.4C94.4678 26.4 94.9778 26.35 95.5378 26.25C96.1178 26.15 96.6178 26 97.0378 25.8C97.5778 25.58 98.0278 25.53 98.3878 25.65C98.7678 25.77 99.0478 26 99.2278 26.34C99.4078 26.66 99.4778 27.02 99.4378 27.42C99.4178 27.82 99.2878 28.21 99.0478 28.59C98.8078 28.95 98.4478 29.23 97.9678 29.43C97.2678 29.75 96.5178 29.98 95.7178 30.12C94.9378 30.26 94.1678 30.33 93.4078 30.33Z" stroke="#1784C2" stroke-width="14" mask="url(#path-1-outside-1_164_4204)"/>
    <path d="M15.3421 71.33C13.6421 71.33 12.2221 71.05 11.0821 70.49C9.94208 69.91 9.08208 69.1 8.50208 68.06C7.92208 67.02 7.63208 65.81 7.63208 64.43C7.63208 63.31 7.81208 62.24 8.17208 61.22C8.55208 60.2 9.11208 59.29 9.85208 58.49C10.5921 57.69 11.5221 57.06 12.6421 56.6C13.7621 56.14 15.0621 55.91 16.5421 55.91C17.2421 55.91 17.8521 55.96 18.3721 56.06C18.8921 56.16 19.4221 56.29 19.9621 56.45C20.5421 56.63 20.9521 56.91 21.1921 57.29C21.4521 57.65 21.5721 58.04 21.5521 58.46C21.5521 58.88 21.4421 59.27 21.2221 59.63C21.0021 59.97 20.7121 60.23 20.3521 60.41C20.0121 60.57 19.6221 60.56 19.1821 60.38C18.7821 60.22 18.4021 60.11 18.0421 60.05C17.6821 59.97 17.3321 59.93 16.9921 59.93C16.2721 59.93 15.6621 60.06 15.1621 60.32C14.6621 60.56 14.2621 60.9 13.9621 61.34C13.6621 61.76 13.4421 62.23 13.3021 62.75C13.1621 63.27 13.0921 63.8 13.0921 64.34C13.0921 65.24 13.3321 65.96 13.8121 66.5C14.2921 67.04 15.0921 67.31 16.2121 67.31C16.4521 67.31 16.7521 67.27 17.1121 67.19C17.4921 67.11 17.8921 66.99 18.3121 66.83C18.6921 66.69 19.0321 66.7 19.3321 66.86C19.6521 67.02 19.9021 67.27 20.0821 67.61C20.2821 67.93 20.3721 68.29 20.3521 68.69C20.3521 69.09 20.2321 69.47 19.9921 69.83C19.7521 70.17 19.3521 70.45 18.7921 70.67C18.3321 70.89 17.7821 71.05 17.1421 71.15C16.5221 71.27 15.9221 71.33 15.3421 71.33Z" stroke="#1784C2" stroke-width="14" mask="url(#path-1-outside-1_164_4204)"/>
    <path d="M29.4904 71.33C27.8704 71.33 26.4904 71.05 25.3504 70.49C24.2304 69.91 23.3704 69.1 22.7704 68.06C22.1904 67.02 21.9004 65.81 21.9004 64.43C21.9004 63.01 22.1404 61.77 22.6204 60.71C23.1204 59.65 23.7804 58.76 24.6004 58.04C25.4404 57.32 26.3804 56.79 27.4204 56.45C28.4604 56.09 29.5304 55.91 30.6304 55.91C32.2304 55.91 33.5904 56.2 34.7104 56.78C35.8504 57.34 36.7204 58.14 37.3204 59.18C37.9204 60.2 38.2204 61.4 38.2204 62.78C38.2204 64.22 37.9704 65.47 37.4704 66.53C36.9904 67.59 36.3304 68.48 35.4904 69.2C34.6704 69.92 33.7404 70.46 32.7004 70.82C31.6604 71.16 30.5904 71.33 29.4904 71.33ZM29.5804 67.4C30.2604 67.4 30.8404 67.2 31.3204 66.8C31.8204 66.38 32.2004 65.81 32.4604 65.09C32.7204 64.37 32.8504 63.55 32.8504 62.63C32.8504 61.73 32.6404 61.04 32.2204 60.56C31.8204 60.08 31.2504 59.84 30.5104 59.84C29.8504 59.84 29.2704 60.04 28.7704 60.44C28.2904 60.84 27.9204 61.4 27.6604 62.12C27.4004 62.84 27.2704 63.67 27.2704 64.61C27.2704 65.51 27.4704 66.2 27.8704 66.68C28.2904 67.16 28.8604 67.4 29.5804 67.4Z" stroke="#1784C2" stroke-width="14" mask="url(#path-1-outside-1_164_4204)"/>
    <path d="M44.7472 71.33C43.7072 71.33 42.8072 71.11 42.0472 70.67C41.3072 70.23 40.7772 69.54 40.4572 68.6C40.1572 67.66 40.1172 66.45 40.3372 64.97L41.3872 58.43C41.5272 57.59 41.8372 56.97 42.3172 56.57C42.7972 56.17 43.4472 55.97 44.2672 55.97C45.1872 55.97 45.8472 56.22 46.2472 56.72C46.6672 57.22 46.8072 57.94 46.6672 58.88L45.7072 64.88C45.6072 65.66 45.6672 66.25 45.8872 66.65C46.1072 67.05 46.5372 67.25 47.1772 67.25C47.9572 67.25 48.6072 66.97 49.1272 66.41C49.6472 65.85 49.9872 65.07 50.1472 64.07L51.0472 58.43C51.1872 57.59 51.4972 56.97 51.9772 56.57C52.4572 56.17 53.1072 55.97 53.9272 55.97C54.8272 55.97 55.4772 56.22 55.8772 56.72C56.2972 57.22 56.4372 57.94 56.2972 58.88L54.7372 68.81C54.4772 70.45 53.5172 71.27 51.8572 71.27C51.0172 71.27 50.4072 71.06 50.0272 70.64C49.6472 70.2 49.5272 69.51 49.6672 68.57L49.9072 66.95L49.8772 68.27C49.3372 69.31 48.6172 70.08 47.7172 70.58C46.8372 71.08 45.8472 71.33 44.7472 71.33Z" stroke="#1784C2" stroke-width="14" mask="url(#path-1-outside-1_164_4204)"/>
    <path d="M60.1248 71.24C59.2848 71.24 58.6748 70.97 58.2948 70.43C57.9148 69.87 57.7948 69.1 57.9348 68.12L59.4348 58.61C59.5748 57.73 59.9048 57.07 60.4248 56.63C60.9448 56.19 61.6348 55.97 62.4948 55.97C63.2948 55.97 63.8948 56.21 64.2948 56.69C64.6948 57.17 64.8048 57.88 64.6248 58.82L64.4148 60.02V58.79C64.9348 57.85 65.6348 57.14 66.5148 56.66C67.3948 56.16 68.4148 55.91 69.5748 55.91C70.6348 55.91 71.5348 56.13 72.2748 56.57C73.0348 57.01 73.5648 57.7 73.8648 58.64C74.1848 59.58 74.2348 60.79 74.0148 62.27L73.0248 68.57C72.8848 69.45 72.5548 70.12 72.0348 70.58C71.5148 71.02 70.8148 71.24 69.9348 71.24C69.0948 71.24 68.4748 70.97 68.0748 70.43C67.6948 69.87 67.5848 69.1 67.7448 68.12L68.6448 62.36C68.7848 61.58 68.7348 60.99 68.4948 60.59C68.2548 60.19 67.7948 59.99 67.1148 59.99C66.2948 59.99 65.6148 60.27 65.0748 60.83C64.5548 61.37 64.2148 62.14 64.0548 63.14L63.1848 68.57C62.9048 70.35 61.8848 71.24 60.1248 71.24Z" stroke="#1784C2" stroke-width="14" mask="url(#path-1-outside-1_164_4204)"/>
    <path d="M83.7482 71.33C82.2282 71.33 80.9882 71.06 80.0282 70.52C79.0682 69.98 78.3982 69.23 78.0182 68.27C77.6582 67.31 77.5682 66.21 77.7482 64.97L78.5282 60.17H77.8682C77.2082 60.17 76.6882 60.03 76.3082 59.75C75.9482 59.45 75.7682 59.03 75.7682 58.49C75.7682 57.77 75.9982 57.22 76.4582 56.84C76.9382 56.44 77.5882 56.24 78.4082 56.24H79.1582L79.4882 54.14C79.6282 53.32 79.9382 52.71 80.4182 52.31C80.8982 51.89 81.5482 51.68 82.3682 51.68C83.2882 51.68 83.9482 51.93 84.3482 52.43C84.7482 52.93 84.8782 53.65 84.7382 54.59L84.4982 56.24H86.6582C87.3182 56.24 87.8382 56.38 88.2182 56.66C88.5982 56.92 88.7882 57.33 88.7882 57.89C88.7882 58.53 88.5682 59.07 88.1282 59.51C87.7082 59.95 87.1282 60.17 86.3882 60.17H83.8682L83.1182 64.76C82.9982 65.58 83.0982 66.17 83.4182 66.53C83.7582 66.87 84.2282 67.04 84.8282 67.04C85.1282 67.04 85.3782 67.02 85.5782 66.98C85.7782 66.92 85.9982 66.89 86.2382 66.89C86.6182 66.89 86.8882 66.99 87.0482 67.19C87.2282 67.39 87.3182 67.78 87.3182 68.36C87.3182 69.34 87.1482 70.02 86.8082 70.4C86.4682 70.78 86.0382 71.03 85.5182 71.15C85.2382 71.21 84.9382 71.25 84.6182 71.27C84.3182 71.31 84.0282 71.33 83.7482 71.33Z" stroke="#1784C2" stroke-width="14" mask="url(#path-1-outside-1_164_4204)"/>
    <path d="M91.0916 71.27C90.2516 71.27 89.6316 71.01 89.2316 70.49C88.8516 69.97 88.7316 69.24 88.8716 68.3L90.4016 58.49C90.5416 57.65 90.8616 57.02 91.3616 56.6C91.8816 56.18 92.5616 55.97 93.4016 55.97C94.2416 55.97 94.8516 56.23 95.2316 56.75C95.6116 57.25 95.7216 57.98 95.5616 58.94L95.4116 59.87H95.1416C95.5016 58.69 96.1216 57.75 97.0016 57.05C97.9016 56.33 98.9316 55.95 100.092 55.91C100.732 55.89 101.192 56.02 101.472 56.3C101.752 56.56 101.892 57.01 101.892 57.65C101.892 58.59 101.672 59.29 101.232 59.75C100.812 60.19 100.162 60.45 99.2816 60.53L98.1716 60.65C97.1316 60.75 96.3816 61.05 95.9216 61.55C95.4816 62.05 95.1716 62.83 94.9916 63.89L94.2416 68.72C94.1016 69.58 93.7716 70.22 93.2516 70.64C92.7316 71.06 92.0116 71.27 91.0916 71.27Z" stroke="#1784C2" stroke-width="14" mask="url(#path-1-outside-1_164_4204)"/>
    <path d="M105.878 76.67C105.218 76.67 104.698 76.52 104.318 76.22C103.958 75.94 103.758 75.56 103.718 75.08C103.698 74.6 103.848 74.09 104.168 73.55L107.018 68.93L106.718 71.09L103.478 59.51C103.278 58.81 103.248 58.2 103.388 57.68C103.548 57.14 103.838 56.72 104.258 56.42C104.678 56.12 105.208 55.97 105.848 55.97C106.568 55.97 107.118 56.14 107.498 56.48C107.878 56.82 108.168 57.44 108.368 58.34L110.108 65.9H109.088L113.648 57.83C114.028 57.15 114.428 56.67 114.848 56.39C115.288 56.11 115.848 55.97 116.528 55.97C117.188 55.97 117.708 56.12 118.088 56.42C118.468 56.7 118.678 57.08 118.718 57.56C118.758 58.02 118.608 58.53 118.268 59.09L108.788 74.78C108.388 75.46 107.978 75.94 107.558 76.22C107.138 76.52 106.578 76.67 105.878 76.67Z" stroke="#1784C2" stroke-width="14" mask="url(#path-1-outside-1_164_4204)"/>
</svg>
